<svg width="20" height="19" viewBox="0 0 20 19" fill="none" xmlns="http://www.w3.org/2000/svg">
<path d="M14.6771 12.264C15.6613 10.9872 16.2499 9.41893 16.2499 7.71878C16.2499 3.46279 12.6049 0 8.12495 0C3.64498 0 0 3.46279 0 7.71878C0 11.9748 3.64502 15.4376 8.12498 15.4376C9.91464 15.4376 11.5656 14.8783 12.9095 13.9433L18.2325 19L20 17.3209L14.6771 12.264ZM8.12498 13.0625C5.02318 13.0625 2.50001 10.6655 2.50001 7.71878C2.50001 4.77205 5.02318 2.37503 8.12498 2.37503C11.2268 2.37503 13.75 4.77205 13.75 7.71878C13.75 10.6655 11.2267 13.0625 8.12498 13.0625Z" fill="#1E1D1C"/>
</svg>
