<svg width="15" height="14" viewBox="0 0 15 14" fill="none" xmlns="http://www.w3.org/2000/svg">
<path fill-rule="evenodd" clip-rule="evenodd" d="M0.681818 0C0.30526 0 0 0.329895 0 0.736842V10.3158C0 10.7227 0.30526 11.0526 0.681818 11.0526H6.81818V12.5263H3.40909C3.03253 12.5263 2.72727 12.8562 2.72727 13.2632C2.72727 13.6701 3.03253 14 3.40909 14H11.5909C11.9675 14 12.2727 13.6701 12.2727 13.2632C12.2727 12.8562 11.9675 12.5263 11.5909 12.5263H8.18182V11.0526H14.3182C14.6947 11.0526 15 10.7227 15 10.3158V0.736842C15 0.329895 14.6947 0 14.3182 0H0.681818ZM5.45455 6.26316C5.45455 5.85621 5.14928 5.52632 4.77273 5.52632C4.39617 5.52632 4.09091 5.85621 4.09091 6.26316V7.73684C4.09091 8.14379 4.39617 8.47368 4.77273 8.47368C5.14928 8.47368 5.45455 8.14379 5.45455 7.73684V6.26316ZM7.5 4.05263C7.87656 4.05263 8.18182 4.38253 8.18182 4.78947V7.73684C8.18182 8.14379 7.87656 8.47368 7.5 8.47368C7.12344 8.47368 6.81818 8.14379 6.81818 7.73684V4.78947C6.81818 4.38253 7.12344 4.05263 7.5 4.05263ZM10.9091 3.31579C10.9091 2.90884 10.6038 2.57895 10.2273 2.57895C9.85071 2.57895 9.54545 2.90884 9.54545 3.31579V7.73684C9.54545 8.14379 9.85071 8.47368 10.2273 8.47368C10.6038 8.47368 10.9091 8.14379 10.9091 7.73684V3.31579Z" fill="#4D4D4D"/>
</svg>
