<svg width="15" height="15" viewBox="0 0 15 15" fill="none" xmlns="http://www.w3.org/2000/svg">
<path d="M8.00508 0.209209C7.72613 -0.0697365 7.27387 -0.0697365 6.99492 0.209209L4.49492 2.70921C4.21598 2.98816 4.21598 3.44042 4.49492 3.71936L6.99492 6.21936C7.27387 6.49831 7.72613 6.49831 8.00508 6.21936L10.5051 3.71936C10.784 3.44042 10.784 2.98816 10.5051 2.70921L8.00508 0.209209Z" fill="#4D4D4D"/>
<path d="M8.00508 8.78064C7.72613 8.50169 7.27387 8.50169 6.99492 8.78064L4.49492 11.2806C4.21598 11.5596 4.21598 12.0118 4.49492 12.2908L6.99492 14.7908C7.27387 15.0697 7.72613 15.0697 8.00508 14.7908L10.5051 12.2908C10.784 12.0118 10.784 11.5596 10.5051 11.2806L8.00508 8.78064Z" fill="#4D4D4D"/>
<path d="M12.2908 4.49492C12.0118 4.21598 11.5596 4.21598 11.2806 4.49492L8.78064 6.99492C8.50169 7.27387 8.50169 7.72613 8.78064 8.00508L11.2806 10.5051C11.5596 10.784 12.0118 10.784 12.2908 10.5051L14.7908 8.00508C15.0697 7.72613 15.0697 7.27387 14.7908 6.99492L12.2908 4.49492Z" fill="#4D4D4D"/>
<path d="M3.71936 4.49492C3.44042 4.21598 2.98816 4.21598 2.70921 4.49492L0.209209 6.99492C-0.0697365 7.27387 -0.0697365 7.72613 0.209209 8.00508L2.70921 10.5051C2.98816 10.784 3.44042 10.784 3.71936 10.5051L6.21936 8.00508C6.49831 7.72613 6.49831 7.27387 6.21936 6.99492L3.71936 4.49492Z" fill="#4D4D4D"/>
</svg>
