<svg width="16" height="15" viewBox="0 0 16 15" fill="none" xmlns="http://www.w3.org/2000/svg">
<path d="M10.9091 0.75C10.9091 0.335786 11.2347 0 11.6364 0H13.8182C14.2198 0 14.5455 0.335786 14.5455 0.75V13.5H15.2727C15.6744 13.5 16 13.8358 16 14.25C16 14.6642 15.6744 15 15.2727 15H0.727273C0.325611 15 0 14.6642 0 14.25C0 13.8358 0.325611 13.5 0.727273 13.5H1.45455V9C1.45455 8.58579 1.78016 8.25 2.18182 8.25H4.36364C4.7653 8.25 5.09091 8.58579 5.09091 9V13.5H6.18182V5.25C6.18182 4.83579 6.50743 4.5 6.90909 4.5H9.09091C9.49257 4.5 9.81818 4.83579 9.81818 5.25V13.5H10.9091V0.75Z" fill="#4D4D4D"/>
</svg>
