<svg width="16" height="16" viewBox="0 0 16 16" fill="none" xmlns="http://www.w3.org/2000/svg">
<path fill-rule="evenodd" clip-rule="evenodd" d="M8.0277 1C8.51095 1.00063 8.90219 1.3929 8.90156 1.87615L8.89468 7.125H14.125C14.6082 7.125 15 7.51675 15 8C15 8.48325 14.6082 8.875 14.125 8.875H8.89238L8.8855 14.1261C8.88487 14.6094 8.4926 15.0006 8.00935 15C7.5261 14.9994 7.13487 14.6071 7.1355 14.1239L7.14238 8.875H1.875C1.39175 8.875 1 8.48325 1 8C1 7.51675 1.39175 7.125 1.875 7.125H7.14467L7.15156 1.87385C7.15219 1.3906 7.54445 0.999367 8.0277 1Z" fill="#C4C4C4" stroke="#C4C4C4" stroke-linecap="round" stroke-linejoin="round"/>
</svg>
